<?xml version="1.0" encoding="utf-8"?><svg xmlns="http://www.w3.org/2000/svg" xmlns:xlink="http://www.w3.org/1999/xlink" width="1920" height="937" preserveAspectRatio="xMidYMid" viewBox="0 0 1920 937" style="z-index:1;margin-right:-2px;display:block;background-repeat-y:initial;background-repeat-x:initial;background-color:rgb(255, 255, 255);animation-play-state:paused" ><g transform="translate(960,468.5) scale(1,1) translate(-960,-468.5)" style="transform:matrix(1, 0, 0, 1, 0, 0);animation-play-state:paused" ><linearGradient id="lg-0.33603723598410373" x1="0" x2="1" y1="0" y2="0" style="animation-play-state:paused" ><stop stop-color="#ff00ff" offset="0" style="animation-play-state:paused" ></stop>

  
<stop stop-color="#00ffff" offset="1" style="animation-play-state:paused" ></stop></linearGradient>
<path d="M 0 0 L 0 882.569 Q 192 814.757 384 783.705 T 768 729.108 T 1152 521.996 T 1536 503.654 T 1920 466.278 L 1920 0 Z" fill="url(#lg-0.33603723598410373)" opacity="0.4" style="opacity:0.4;animation-play-state:paused" ></path>
<path d="M 0 0 L 0 815.937 Q 192 835.264 384 792.875 T 768 709.996 T 1152 633.95 T 1536 456.147 T 1920 399.994 L 1920 0 Z" fill="url(#lg-0.33603723598410373)" opacity="0.4" style="opacity:0.4;animation-play-state:paused" ></path>
<path d="M 0 0 L 0 807.022 Q 192 719.91 384 688.327 T 768 689.729 T 1152 525.241 T 1536 469.098 T 1920 395.899 L 1920 0 Z" fill="url(#lg-0.33603723598410373)" opacity="0.4" style="opacity:0.4;animation-play-state:paused" ></path>
<path d="M 0 0 L 0 811.386 Q 192 735.996 384 710.119 T 768 674.312 T 1152 574.138 T 1536 469.885 T 1920 416.169 L 1920 0 Z" fill="url(#lg-0.33603723598410373)" opacity="0.4" style="opacity:0.4;animation-play-state:paused" ></path>
<path d="M 0 0 L 0 862.686 Q 192 757.203 384 739.737 T 768 647.52 T 1152 559.603 T 1536 544.02 T 1920 400.43 L 1920 0 Z" fill="url(#lg-0.33603723598410373)" opacity="0.4" style="opacity:0.4;animation-play-state:paused" ></path></g></svg>